# xmcd CD database file
#
# Track frame offsets:
#	150
#	23899
#	34609
#	53557
#	69481
#	84790
#	96573
#	117346
#	124527
#	136301
#	145844
#	159052
#	178117
#	194025
#	210716
#	229580
#	243112
#	253003
#	263806
#	280594
#	290625
#	303028
#	313117
#
# Disc length: 4410 seconds
#
# Revision: 1
# Processed by: cddbd v1.4PL0 Copyright (c) Steve Scherf et al.
# Submitted via: CDex 1.51
#
DISCID=3e113817
DTITLE=Dick Farney - Solo CD1
DYEAR=1997
DGENRE=Jazz
TTITLE0=Georgia On My Mind
TTITLE1=Moon River
TTITLE2=Satin Doll I
TTITLE3=I'll Be Seeing You
TTITLE4=What Are You Doing The Rest of Your Life
TTITLE5=Are My Dreams Real
TTITLE6=Angel Yes
TTITLE7=This Love of Mine
TTITLE8=Please Be Kind
TTITLE9=Lullaby of Birdland
TTITLE10=Moonglow
TTITLE11=Perdido
TTITLE12=Here's That Rainy Day
TTITLE13=I'll Remember April
TTITLE14=Satin Doll II
TTITLE15=All The Things You Are
TTITLE16=If I Should Lose You
TTITLE17=In The Wee Small Hours Of The Morning
TTITLE18=Emily
TTITLE19=But Beautifull
TTITLE20=It Could Happen To You
TTITLE21=The One I Love
TTITLE22=Tangerine
EXTD=YEAR: 1997
EXTT0=
EXTT1=
EXTT2=
EXTT3=
EXTT4=
EXTT5=
EXTT6=
EXTT7=
EXTT8=
EXTT9=
EXTT10=
EXTT11=
EXTT12=
EXTT13=
EXTT14=
EXTT15=
EXTT16=
EXTT17=
EXTT18=
EXTT19=
EXTT20=
EXTT21=
EXTT22=
PLAYORDER=
